<svg width="208" height="128" viewBox="0 0 208 128" fill="none" xmlns="http://www.w3.org/2000/svg">
<g clip-path="url(#clip0_309_3)">
<path d="M193 5H15C9.47715 5 5 9.47715 5 15V113C5 118.523 9.47715 123 15 123H193C198.523 123 203 118.523 203 113V15C203 9.47715 198.523 5 193 5Z" stroke="black" stroke-width="10"/>
<path d="M155 30L185 63H165V98H145V63H125L155 30Z" fill="black"/>
<path d="M30 98V30H50L70 55L90 30H110V98H90V59L70 84L50 59V98H30Z" fill="black"/>
</g>
<defs>
<clipPath id="clip0_309_3">
<rect width="208" height="128" fill="white"/>
</clipPath>
</defs>
</svg>
